HIERARCHY
ROOT Hips
{
	OFFSET 0.00000 0.00000 0.00000
	CHANNELS 6 Xposition Yposition Zposition Zrotation Yrotation Xrotation 
	JOINT RightUpLegDummy
	{
		OFFSET 0 0 0
		CHANNELS 3 Zrotation Yrotation Xrotation
		JOINT RightUpLeg
		{
			OFFSET -3.52197 -3.41223 0.04002
			CHANNELS 3 Zrotation Yrotation Xrotation
			JOINT RightLeg
			{
				OFFSET -1.06336 -17.58347 1.60435
				CHANNELS 3 Zrotation Yrotation Xrotation
				JOINT RightFoot
				{
					OFFSET -0.27018 -17.05419 -1.63900
					CHANNELS 3 Zrotation Yrotation Xrotation
					JOINT RightToes
					{
						OFFSET 0.00298 -1.73825 3.34613
						CHANNELS 3 Zrotation Yrotation Xrotation
						End Site
						{
							OFFSET 0.00480 -0.05416 3.85043
						}
					}
				}
			}
		}
	}
	JOINT SpineDummy
	{
		OFFSET 0 0 0
		CHANNELS 3 Zrotation Yrotation Xrotation
		JOINT Spine
		{
			OFFSET 0.00000 4.14613 0.00000
			CHANNELS 3 Zrotation Yrotation Xrotation
			JOINT Spine1
			{
				OFFSET 0.00000 10.93369 0.05002
				CHANNELS 3 Zrotation Yrotation Xrotation
				JOINT HEadDummy
				{
					OFFSET 0 0 0
					CHANNELS 3 Zrotation Yrotation Xrotation
					JOINT Head
					{
						OFFSET 0.00000 5.52901 0.00438
						CHANNELS 3 Zrotation Yrotation Xrotation
						End Site
						{
							OFFSET -0.11417 7.29012 0.98962
						}
					}
				}
				JOINT LeftShoulder1Dummy
				{
					OFFSET 0 0 0
					CHANNELS 3 Zrotation Yrotation Xrotation
					JOINT LeftShoulder1
					{
						OFFSET 3.53937 -0.14262 -0.08662
						CHANNELS 3 Zrotation Yrotation Xrotation
						JOINT LeftArm
						{
							OFFSET 4.04833 -0.00133 0.12681
							CHANNELS 3 Zrotation Yrotation Xrotation
							JOINT LeftForeArm
							{
								OFFSET 9.67557 0.03289 -0.56117
								CHANNELS 3 Zrotation Yrotation Xrotation
								JOINT LeftHand
								{
									OFFSET 10.17679 0.06873 0.40307
									CHANNELS 3 Zrotation Yrotation Xrotation
									End Site
									{
										OFFSET 6.59293 -0.21483 0.59213
									}
								}
							}
						}
					}
				}
				JOINT RightShoulderDummy
				{
					OFFSET 0 0 0
					CHANNELS 3 Zrotation Yrotation Xrotation
					JOINT RightShoulder
					{
						OFFSET -3.53937 -0.14262 -0.08660
						CHANNELS 3 Zrotation Yrotation Xrotation
						JOINT RightArm
						{
							OFFSET -4.04833 -0.00132 0.12683
							CHANNELS 3 Zrotation Yrotation Xrotation
							JOINT RightForeArm
							{
								OFFSET -9.67570 0.03289 -0.56114
								CHANNELS 3 Zrotation Yrotation Xrotation
								JOINT RightHand
								{
									OFFSET -10.17679 0.06867 0.40304
									CHANNELS 3 Zrotation Yrotation Xrotation
									End Site
									{
										OFFSET -6.54841 -0.21495 0.59212
									}
								}
							}
						}
					}
				}
			}
		}
	}
	JOINT LeftUpLegDummy
	{
		OFFSET 0 0 0
		CHANNELS 3 Zrotation Yrotation Xrotation
		JOINT LeftUpLeg
		{
			OFFSET 3.52197 -3.41223 0.04002
			CHANNELS 3 Zrotation Yrotation Xrotation
			JOINT LeftLeg
			{
				OFFSET 1.08359 -17.35354 1.60336
				CHANNELS 3 Zrotation Yrotation Xrotation
				JOINT LeftFoot
				{
					OFFSET 0.24986 -17.28405 -1.63802
					CHANNELS 3 Zrotation Yrotation Xrotation
					JOINT LeftToes
					{
						OFFSET -0.01575 -1.73822 3.34610
						CHANNELS 3 Zrotation Yrotation Xrotation
						End Site
						{
							OFFSET 0.03150 -0.01868 3.85031
						}
					}
				}
			}
		}
	}
}
MOTION
Frames: 8
Frame Time: 0.033333
11.0987 40.7587 -0.1012 -80.9242 -88.5952 82.5079 0.0000 0.0000 0.0000 -4.3562 -5.0035 -1.0859 -2.1890 1.9594 3.2117 0.5178 0.0227 -3.6939 0.0000 0.0000 -0.0000 0.0000 0.0000 0.0000 4.4973 0.3861 -7.4101 -3.0583 0.7825 8.7341 0.0000 0.0000 0.0000 2.7320 -7.5061 -2.1545 0.0000 0.0000 0.0000 3.1680 3.9487 0.0418 6.0937 -17.5964 -34.3962 -8.8440 5.3100 36.9117 5.9047 -3.3912 -0.3855 0.0000 0.0000 0.0000 -2.5238 -1.3332 0.1412 -6.4066 14.9480 -29.3880 4.9960 -5.5589 20.6908 -1.8151 -1.0557 -0.0679 0.0000 0.0000 0.0000 10.4623 10.3232 -1.5246 0.2464 -5.2678 0.5758 -3.1077 0.2678 -0.6810 0.0000 0.0000 -0.0000
11.1070 40.7587 -0.1070 -81.5324 -88.5949 83.1173 0.0000 0.0000 0.0000 -4.3383 -4.9856 -1.1135 -2.1966 1.9687 3.2288 0.4650 0.0261 -3.6716 0.0000 0.0000 -0.0000 0.0000 0.0000 0.0000 4.5276 0.3861 -7.3917 -3.0918 0.7896 8.6954 0.0000 0.0000 0.0000 2.7605 -7.5280 -2.1705 0.0000 0.0000 0.0000 3.2497 3.9712 0.0418 6.0558 -17.6198 -34.4490 -8.8102 5.3077 37.0521 5.9970 -3.4152 -0.3930 0.0000 0.0000 0.0000 -2.5347 -1.3480 0.1412 -6.3643 14.9190 -29.2901 5.0305 -5.5585 20.7044 -1.8212 -1.2094 -0.0687 0.0000 0.0000 0.0000 10.4841 10.3503 -1.5162 0.2244 -5.2858 0.5426 -3.1133 0.2682 -0.6565 0.0000 0.0000 -0.0000
11.1231 40.7587 -0.1171 -83.1213 -88.5727 84.7108 0.0000 0.0000 0.0000 -4.2875 -4.9398 -1.1557 -2.2040 1.9943 3.2335 0.4364 0.0278 -3.6260 0.0000 0.0000 -0.0000 0.0000 0.0000 0.0000 4.5816 0.4028 -7.3701 -3.1027 0.8050 8.6320 0.0000 0.0000 0.0000 2.7316 -7.5808 -2.2384 0.0000 0.0000 0.0000 3.3655 3.9825 0.0418 5.9972 -17.6582 -34.5525 -8.7454 5.3048 37.2462 6.0688 -3.4354 -0.3988 0.0000 0.0000 0.0000 -2.5936 -1.4046 0.1412 -6.2890 14.8889 -29.2035 5.0461 -5.5585 20.8014 -1.8242 -1.3665 -0.0696 0.0000 0.0000 0.0000 10.5324 10.3882 -1.5316 0.2118 -5.2987 0.5343 -3.1361 0.2696 -0.6458 0.0000 0.0000 -0.0000
11.1420 40.7587 -0.1266 -85.4258 -88.5459 87.0131 0.0000 0.0000 0.0000 -4.2338 -4.8818 -1.1677 -2.2184 2.0088 3.1900 0.4913 0.0243 -3.6287 0.0000 0.0000 -0.0000 0.0000 0.0000 0.0000 4.6401 0.4305 -7.3155 -3.1148 0.8302 8.5241 0.0000 0.0000 0.0000 2.7057 -7.6485 -2.3384 0.0000 0.0000 0.0000 3.4507 3.9693 0.0418 5.9472 -17.6694 -34.6653 -8.6735 5.3047 37.2900 6.0196 -3.4309 -0.3940 0.0000 0.0000 0.0000 -2.6341 -1.4410 0.1417 -6.2505 14.8439 -29.2014 5.0343 -5.5636 20.8196 -1.8931 -1.4941 -0.0700 0.0000 0.0000 0.0000 10.5791 10.4195 -1.5620 0.2105 -5.2856 0.5687 -3.1144 0.2682 -0.6313 0.0000 0.0000 -0.0000
11.1618 40.7587 -0.1327 -87.9796 -88.5281 89.5229 0.0000 0.0000 0.0000 -4.1953 -4.8370 -1.1345 -2.2380 2.0232 3.1332 0.5127 0.0228 -3.6109 0.0000 0.0000 -0.0000 0.0000 0.0000 0.0000 4.7181 0.4433 -7.1994 -3.1841 0.8566 8.4158 0.0000 0.0000 0.0000 2.7956 -7.6945 -2.4486 0.0000 0.0000 0.0000 3.5020 3.9538 0.0418 5.9350 -17.6225 -34.7133 -8.6345 5.3050 37.3012 5.9754 -3.4327 -0.3924 0.0000 0.0000 0.0000 -2.5778 -1.3997 0.1459 -6.3023 14.7614 -29.2424 5.0229 -5.5661 20.6690 -2.0118 -1.6244 -0.0701 0.0000 0.0000 0.0000 10.6261 10.4627 -1.5242 0.1934 -5.2693 0.5601 -3.0666 0.2652 -0.5795 0.0000 0.0000 -0.0000
11.1838 40.7587 -0.1353 -88.9661 -88.5238 90.4222 0.0000 0.0000 0.0000 -4.1886 -4.8446 -1.0948 -2.2326 2.0765 3.1447 0.4480 0.0265 -3.5174 0.0000 0.0000 -0.0000 0.0000 0.0000 0.0000 4.7614 0.4230 -7.0812 -3.2261 0.8512 8.4180 0.0000 0.0000 0.0000 2.9288 -7.6790 -2.5682 0.0000 0.0000 0.0000 3.5415 3.9533 0.0418 5.9556 -17.5797 -34.6912 -8.6389 5.3016 37.4254 6.0488 -3.4631 -0.3988 0.0000 0.0000 0.0000 -2.4755 -1.3072 0.1540 -6.4304 14.6645 -29.2592 5.0236 -5.5621 20.6179 -2.0575 -1.6883 -0.0703 0.0000 0.0000 0.0000 10.6610 10.4996 -1.4230 0.1695 -5.2881 0.4933 -3.0803 0.2660 -0.5295 0.0000 0.0000 -0.0000
11.2107 40.7587 -0.1356 -87.1809 -88.5375 88.5678 0.0000 0.0000 0.0000 -4.2262 -4.9032 -1.0865 -2.1923 2.1411 3.2031 0.4351 0.0257 -3.4664 0.0000 0.0000 -0.0000 0.0000 0.0000 0.0000 4.7097 0.3805 -7.0185 -3.1615 0.8045 8.4910 0.0000 0.0000 0.0000 2.9588 -7.6105 -2.6598 0.0000 0.0000 0.0000 3.5637 3.9537 0.0418 5.9836 -17.6267 -34.7068 -8.6400 5.2973 37.5170 6.1201 -3.4808 -0.4046 0.0000 0.0000 0.0000 -2.4360 -1.2314 0.1554 -6.5487 14.6089 -29.2446 5.0264 -5.5574 20.8298 -2.0099 -1.6629 -0.0704 0.0000 0.0000 0.0000 10.6511 10.4917 -1.4072 0.1604 -5.3410 0.5007 -3.1223 0.2687 -0.5266 0.0000 0.0000 -0.0000
11.2428 40.7587 -0.1310 -85.7791 -88.5495 87.1489 0.0000 0.0000 0.0000 -4.2754 -4.9479 -1.0833 -2.1524 2.1889 3.1584 0.5096 0.0183 -3.4597 0.0000 0.0000 -0.0000 0.0000 0.0000 0.0000 4.6899 0.3526 -6.9269 -3.1528 0.7780 8.4193 0.0000 0.0000 0.0000 2.9318 -7.5463 -2.6530 0.0000 0.0000 0.0000 3.5426 3.9273 0.0418 6.0444 -17.7149 -34.7892 -8.6239 5.3016 37.4940 6.0473 -3.4482 -0.3980 0.0000 0.0000 0.0000 -2.4517 -1.1980 0.1542 -6.5764 14.6250 -29.2642 5.0185 -5.5566 20.9556 -2.0132 -1.6388 -0.0702 0.0000 0.0000 0.0000 10.6222 10.4813 -1.5196 0.1396 -5.3691 0.6355 -3.0701 0.2654 -0.5323 0.0000 0.0000 -0.0000
